<svg xmlns="http://www.w3.org/2000/svg" width="27" height="24" viewBox="0 0 27 24"><g><g><path d="M20 6v11c0 1.11-.89 2-2 2H2c-1.11 0-2-.89-2-2V6c0-1.11.89-2 2-2h3V2c0-1.11.89-2 2-2h6c1.11 0 2 .89 2 2v2h3c1.11 0 2 .89 2 2zM7 4h6V2H7zm11 11H2v2h16zm0-9h-3v2h-2V6H7v2H5V6H2v6h16z"/></g><g><path d="M20 10a7 7 0 1 1 0 14 7 7 0 0 1 0-14z"/></g><g><g><text dominant-baseline="text-before-edge" style="text-transform:uppercase;line-height:64px" fill="#fff" font-family="'Montserrat','Montserrat-Medium'" font-size="8" transform="translate(17 14)"><tspan style="font-kerning:normal">3</tspan></text></g></g></g></svg>