<svg xmlns="http://www.w3.org/2000/svg" width="15" height="17" viewBox="0 0 15 17"><g><g><path fill="#161918" d="M12.5 12.013c-.633 0-1.2.256-1.633.657L4.925 9.13c.042-.197.075-.393.075-.598 0-.205-.033-.4-.075-.597L10.8 4.429c.45.427 1.042.69 1.7.69 1.383 0 2.5-1.142 2.5-2.558C15 1.144 13.883 0 12.5 0S10 1.144 10 2.561c0 .204.033.4.075.596L4.2 6.664a2.458 2.458 0 0 0-1.7-.691c-1.383 0-2.5 1.143-2.5 2.56 0 1.415 1.117 2.559 2.5 2.559a2.46 2.46 0 0 0 1.7-.691l5.933 3.548c-.041.18-.066.367-.066.555 0 1.374 1.091 2.49 2.433 2.49 1.342 0 2.433-1.116 2.433-2.49 0-1.373-1.091-2.491-2.433-2.491z"/></g></g></svg>